<?xml version="1.0" encoding="utf-8"?>
<!-- Generator: Adobe Illustrator 28.2.0, SVG Export Plug-In . SVG Version: 6.00 Build 0)  -->
<svg version="1.1" id="Layer_1" xmlns="http://www.w3.org/2000/svg" xmlns:xlink="http://www.w3.org/1999/xlink" x="0px" y="0px"
	 viewBox="0 0 523.2 320.6" style="enable-background:new 0 0 523.2 320.6;" xml:space="preserve">
<style type="text/css">
	.st0{fill:#CE1126;}
	.st1{fill:#1EB53A;}
	.st2{fill:#706969;}
</style>
<g>
	<g>
		<path class="st0" d="M339.9-442.1c-4.5-1.9-5.8-5.4-3.1-8.2c13.2-13.4,17.4-27.3-2.6-40.5c-21.2-13.8-48.3-11.7-75.3-8.8
			c-5.1,0.6-8.8,3.2-8.8,6.2v37.1c0,2.5,2.7,4.8,6.7,5.8c92.3,22.8,129.3,49.7,123.1,89.1c-4.7,30.2-41.7,61-83.5,71.3
			c-7.2,1.8-15.1-1.3-15.1-5.8v-129.9c0-2.7-2.8-5-7.1-5.9c-3.1-0.7-6.2-1.3-9.3-2c-7.1-1.5-14.6,1.5-14.6,5.9v147.1
			c0,4,6.3,7,13,6.2c63.2-7.5,115.9-24.3,141.2-60.9C436.6-381.8,403.1-415.8,339.9-442.1z M289.5-455.3h-0.1
			c-4.6-0.8-7.7-3.3-7.7-6.1v-26.1c0-3.4,4.7-6.2,10.5-6.3c11.4-0.3,21.4,1.6,26.8,8.7c10.2,13.4-4.6,20.9-19.2,28.5
			C297.1-455.2,293.1-454.7,289.5-455.3z"/>
	</g>
	<g>
		<path class="st1" d="M76.9-335.3c25.3,36.6,78.1,53.4,141.2,60.9c6.7,0.8,13-2.2,13-6.2v-147.1c0-4.4-7.5-7.4-14.6-5.9
			c-3.1,0.7-6.2,1.3-9.3,2c-4.3,0.9-7.1,3.3-7.1,5.9v129.9c0,4.5-7.9,7.6-15.1,5.8c-41.8-10.3-78.8-41-83.5-71.3
			c-6.2-39.4,30.8-66.4,123.1-89.1c4-1,6.7-3.3,6.7-5.8v-37.1c0-3-3.7-5.7-8.8-6.2c-27-2.9-54.1-5.1-75.3,8.8
			c-20.1,13.1-15.8,27.1-2.6,40.5c2.7,2.8,1.4,6.3-3.1,8.2C78.3-415.8,44.8-381.8,76.9-335.3z M181.5-456.6
			c-14.6-7.6-29.4-15.1-19.2-28.5c5.4-7.1,15.4-9,26.8-8.7c5.9,0.2,10.5,2.9,10.5,6.3v26.1c0,2.8-3.1,5.3-7.7,6.1h-0.1
			C188.3-454.7,184.3-455.2,181.5-456.6z"/>
	</g>
	<g>
		<path class="st2" d="M-9.2-315.3l36.9-27.2l13,17.6c2.5,3.3,3.6,6.6,3.4,10c-0.3,3.3-1.9,6-4.8,8.2c-3.3,2.4-6.7,3.1-10.2,2
			l-0.2,0.2c0.9,4.5-0.9,8.3-5.2,11.5c-3.3,2.5-6.7,3.3-10.1,2.6c-3.5-0.7-6.5-2.9-9.2-6.5L-9.2-315.3z M4.2-312.5l6.5,8.7
			c2.3,3.1,4.8,3.7,7.5,1.7c1.1-0.8,1.8-1.9,2-3.2s-0.2-2.8-1.4-4.5l-6.5-8.7L4.2-312.5z M19.5-323.8l6.1,8.2c1.9,2.6,4,3.1,6.4,1.3
			c2.3-1.7,2.5-3.9,0.6-6.5l-6.1-8.2L19.5-323.8z"/>
		<path class="st2" d="M29.3-269.6c-2.9-2.5-4.5-5.4-4.7-8.5c-0.3-3.2,0.8-6.3,3.2-9.1l14.8-16.9l7.6,6.7l-12.8,14.6
			c-2.8,3.2-2.7,6,0.2,8.5c1.4,1.2,2.9,1.7,4.6,1.6c1.7-0.2,3.2-1,4.5-2.5l12.5-14.3l7.6,6.6l-22.5,25.6l-6.8-6l1.6-3h-0.2
			C35.6-265.9,32.4-266.9,29.3-269.6z"/>
		<path class="st2" d="M51.7-252.3L70.4-281l7,4.6l-2.1,4.6l0.2,0.1c3.6-2.1,7-2.1,10.4,0.1l2,1.3l-5.1,7.7l-2.7-1.8
			c-2-1.3-4-1.7-6-1.2c-2.1,0.5-3.9,1.9-5.3,4.2l-9.2,14.1L51.7-252.3z"/>
		<path class="st2" d="M86.7-231c-3.4-1.7-5.7-4-6.8-7c-1.1-3-0.9-6.3,0.8-9.6l9.9-20.2l9.1,4.4L91.2-246c-1.8,3.8-1,6.5,2.4,8.2
			c1.6,0.8,3.3,0.9,4.9,0.3c1.6-0.6,2.8-1.8,3.7-3.6l8.4-17.1l9,4.4l-15.1,30.7l-8.1-4l0.7-3.3l-0.2-0.1
			C93.7-228.9,90.3-229.2,86.7-231z"/>
		<path class="st2" d="M112.5-219.7l10.9-32.5l8.6,2.9l-0.3,3.3l0.2,0.1c2.9-1.7,6.3-2,10.1-0.7c3.6,1.2,6.1,3.2,7.7,6.1
			c1.5,2.9,1.6,6.1,0.5,9.6l-7.2,21.4l-9.5-3.2l6.2-18.4c1.3-4,0.2-6.6-3.5-7.8c-1.8-0.6-3.3-0.5-4.8,0.3c-1.5,0.8-2.6,2.2-3.2,4.1
			l-6,18L112.5-219.7z"/>
		<path class="st2" d="M163.1-204.3c-4.2-0.9-7.1-3.1-8.9-6.9c-1.8-3.7-2.2-8.1-1.1-13.3c1-5.1,3.1-9,6.3-11.7
			c3.1-2.7,6.7-3.6,10.9-2.8c3.8,0.8,6.5,2.7,8.1,5.6l0.3,0.1l3.5-17.1l9.9,2l-9.8,47.5l-8.9-1.8l-0.4-3.4l-0.3-0.1
			C170.2-204.2,167-203.5,163.1-204.3z M167.9-212.3c2.2,0.5,4,0,5.5-1.4c1.4-1.4,2.4-3.3,2.9-6c1.2-5.8-0.4-9.1-4.8-10
			c-4.4-0.9-7.2,1.5-8.4,7.3c-0.5,2.7-0.4,4.9,0.3,6.6C164.2-213.9,165.7-212.8,167.9-212.3z"/>
		<path class="st2" d="M190-200.2l4.2-34l10,1.2l-4.2,34L190-200.2z M194.3-238.2l1.2-10.2l10.7,1.3l-1.2,10.2L194.3-238.2z"/>
		<path class="st2" d="M228.5-196.6l-0.8-45.8l21.9-0.4c4.1-0.1,7.5,0.9,10.1,3c2.5,2.1,3.8,5,3.9,8.7c0.1,4-1.4,7.2-4.3,9.4v0.3
			c4.1,1.9,6.3,5.5,6.4,11c0.1,4.1-1.2,7.4-3.7,9.7c-2.6,2.4-6.1,3.7-10.7,3.7L228.5-196.6z M238.2-225l10.2-0.2
			c3.2-0.1,4.8-1.5,4.8-4.4c0-2.9-1.7-4.3-4.9-4.2l-10.2,0.2L238.2-225z M238.6-205.9l10.9-0.2c3.9-0.1,5.8-1.8,5.7-5.2
			c0-1.4-0.5-2.6-1.4-3.5c-1-1-2.4-1.5-4.5-1.4l-10.9,0.2L238.6-205.9z"/>
		<path class="st2" d="M286.1-199.2c-3.8,0.5-7-0.2-9.5-2.1c-2.6-1.9-4.2-4.7-4.7-8.4l-3-22.3l10-1.4l2.6,19.2
			c0.6,4.2,2.7,6,6.5,5.5c1.8-0.2,3.2-1.1,4.2-2.4c1-1.4,1.3-3,1.1-5l-2.6-18.8l10-1.4l4.6,33.9l-9,1.2l-1.2-3.1h-0.3
			C293-201.5,290.1-199.8,286.1-199.2z"/>
		<path class="st2" d="M326.5-206.8c-5,1.2-8.9,1.1-11.8-0.5c-3-1.5-4.9-4.1-5.9-7.6l9.8-2.4c0.2,1,0.9,1.7,1.9,2.3
			c1,0.5,2.3,0.6,3.9,0.2c1.6-0.4,2.7-0.9,3.4-1.6c0.7-0.6,0.9-1.3,0.7-2c-0.3-1.3-1.7-1.9-4-1.8l-5.1,0.3
			c-7.1,0.4-11.4-2.2-12.8-7.9c-0.7-2.9-0.1-5.5,1.9-7.9c2-2.5,5.1-4.3,9.3-5.3c4.2-1,7.8-0.8,10.9,0.7c3,1.5,4.9,3.8,5.7,7
			l-9.7,2.4c-0.2-0.9-0.7-1.6-1.6-2.2c-0.9-0.5-2.1-0.6-3.6-0.2c-1.2,0.3-2,0.7-2.6,1.3c-0.6,0.6-0.8,1.3-0.7,1.9
			c0.3,1.2,1.3,1.8,3.1,1.7l6.7-0.4c3.1-0.2,5.7,0.3,7.9,1.3c2.2,1.2,3.7,3.3,4.5,6.5c0.8,3.4,0.2,6.3-2.1,8.8
			C334.1-209.7,330.8-207.9,326.5-206.8z"/>
		<path class="st2" d="M348.2-213.2l-17.1-45.3l9.5-3.6l6.2,16.4l0.2-0.1c1.1-3.2,3.6-5.5,7.4-6.9c3.6-1.4,6.9-1.4,9.8-0.1
			s5.1,3.7,6.4,7.2l8,21.1l-9.4,3.6l-6.8-18.1c-1.5-3.9-4-5.2-7.6-3.9c-1.7,0.6-2.9,1.8-3.7,3.4c-0.7,1.6-0.8,3.3-0.1,5.2l6.7,17.8
			L348.2-213.2z"/>
		<path class="st2" d="M395.9-232.8c-3.3,1.8-6.3,2.3-9.1,1.5c-2.8-0.7-5-2.5-6.5-5.3c-1.5-2.9-1.7-5.7-0.6-8.5
			c1.1-2.7,3.7-5.2,7.7-7.3l6.5-3.5l-0.9-1.6c-0.6-1.1-1.5-1.8-2.6-2.1c-1.1-0.2-2.5,0.1-4,0.9c-1.4,0.7-2.3,1.6-2.7,2.6
			c-0.5,1.1-0.4,2.1,0.1,3.1l-8.3,4.5c-1.6-3-1.9-6.1-0.7-9.3c1.1-3.2,3.8-5.9,8-8.1c4.1-2.2,7.8-2.9,11.2-2.2
			c3.5,0.8,6.1,2.7,7.8,5.9l10.7,19.8l-8,4.3l-2.1-2.4l-0.2,0.1C401.5-237.2,399.4-234.6,395.9-232.8z M394.4-240.9
			c1.7-0.9,2.9-2.1,3.5-3.6c0.6-1.4,0.5-2.8-0.2-4.1l-0.7-1.3l-5.7,3.1c-1.3,0.7-2.2,1.5-2.6,2.4c-0.4,0.9-0.4,1.8,0.1,2.6
			c0.5,0.9,1.2,1.4,2.2,1.6C392-240,393.2-240.2,394.4-240.9z"/>
		<path class="st2" d="M431.4-254.8c-4.1,3-7.8,4.4-11.1,4c-3.3-0.3-6.1-1.9-8.3-4.8l8.1-6c0.6,0.8,1.5,1.3,2.6,1.4s2.4-0.4,3.7-1.3
			c1.3-1,2.2-1.9,2.5-2.7c0.4-0.8,0.3-1.5-0.1-2.1c-0.8-1.1-2.3-1.1-4.4-0.1l-4.6,2.2c-6.4,3.1-11.3,2.3-14.8-2.5
			c-1.8-2.4-2.2-5.1-1.3-8.1c0.9-3.1,3.1-5.9,6.6-8.5c3.5-2.5,6.9-3.7,10.3-3.5c3.4,0.2,6,1.7,8,4.3l-8,5.9
			c-0.5-0.8-1.3-1.2-2.3-1.4s-2.1,0.3-3.4,1.2c-1,0.7-1.6,1.5-1.9,2.2c-0.3,0.8-0.3,1.5,0.1,2c0.7,1,1.9,1.1,3.5,0.4l6-2.9
			c2.8-1.3,5.4-1.9,7.8-1.8c2.4,0.2,4.6,1.7,6.6,4.3c2.1,2.8,2.6,5.8,1.4,8.9C437.3-260.4,435-257.4,431.4-254.8z"/>
		<path class="st2" d="M449.8-269.8l-34.9-33.6l7-7.3l12.6,12.1l0.2-0.2c-0.3-3.4,0.9-6.5,3.7-9.4c2.7-2.8,5.6-4.2,8.8-4.3
			c3.2-0.1,6.2,1.1,8.8,3.7l16.2,15.6l-7,7.2l-13.9-13.4c-3-2.9-5.9-3-8.5-0.2c-1.3,1.3-1.9,2.9-1.9,4.6c0,1.8,0.8,3.3,2.2,4.7
			l13.7,13.2L449.8-269.8z"/>
		<path class="st2" d="M484.8-310.1c-2,3.2-4.4,5.1-7.2,5.9c-2.8,0.8-5.6,0.3-8.2-1.3c-2.8-1.7-4.3-4.1-4.7-7
			c-0.4-2.9,0.6-6.3,3-10.2l3.9-6.2l-1.6-1c-1.1-0.7-2.2-0.9-3.3-0.6c-1.1,0.3-2.1,1.3-3.1,2.8c-0.8,1.3-1.2,2.5-1,3.6
			c0.1,1.2,0.7,2,1.6,2.6l-5,8c-2.9-1.8-4.7-4.4-5.3-7.8c-0.6-3.3,0.4-7,2.9-11.1c2.4-3.9,5.3-6.4,8.7-7.5c3.4-1.1,6.6-0.7,9.7,1.2
			l19.1,11.9l-4.8,7.7l-3-1l-0.1,0.2C487.4-316.7,486.9-313.5,484.8-310.1z M479.5-316.4c1-1.7,1.5-3.3,1.2-4.8
			c-0.2-1.5-1-2.7-2.2-3.5l-1.2-0.8l-3.4,5.5c-0.8,1.3-1.1,2.4-1.1,3.4c0.1,1,0.5,1.7,1.4,2.3s1.8,0.6,2.7,0.3
			C477.8-314.4,478.7-315.2,479.5-316.4z"/>
	</g>
</g>
<g>
	<path class="st0" d="M362,67.6c-4.5-1.9-5.8-5.4-3.1-8.2c13.2-13.4,17.4-27.3-2.6-40.5C335.2,5.2,308,7.3,281,10.2
		c-5.1,0.6-8.8,3.2-8.8,6.2v37.1c0,2.5,2.7,4.8,6.7,5.8C371.2,82.1,408.2,109,402,148.4c-4.7,30.2-41.7,61-83.5,71.3
		c-7.2,1.8-15.1-1.3-15.1-5.8V84.1c0-2.7-2.8-5-7.1-5.9c-3.1-0.7-6.2-1.3-9.3-2c-7.1-1.5-14.6,1.5-14.6,5.9v147.1c0,4,6.3,7,13,6.2
		c63.2-7.5,115.9-24.3,141.2-60.9C458.7,128,425.2,94,362,67.6z M311.6,54.5h-0.1c-4.6-0.8-7.7-3.3-7.7-6.1V22.3
		c0-3.4,4.7-6.2,10.5-6.3c11.4-0.3,21.4,1.6,26.8,8.7c10.2,13.4-4.6,20.9-19.2,28.5C319.2,54.6,315.2,55.1,311.6,54.5z"/>
</g>
<g>
	<path class="st1" d="M99,174.5c25.3,36.6,78.1,53.4,141.2,60.9c6.7,0.8,13-2.2,13-6.2V82.1c0-4.4-7.5-7.4-14.6-5.9
		c-3.1,0.7-6.2,1.3-9.3,2c-4.3,0.9-7.1,3.3-7.1,5.9V214c0,4.5-7.9,7.6-15.1,5.8c-41.8-10.3-78.8-41-83.5-71.3
		c-6.2-39.4,30.8-66.4,123.1-89.1c4-1,6.7-3.3,6.7-5.8V16.4c0-3-3.7-5.7-8.8-6.2c-27-2.9-54.1-5.1-75.3,8.8
		c-20.1,13.1-15.8,27.1-2.6,40.5c2.7,2.8,1.4,6.3-3.1,8.2C100.4,94,66.9,128,99,174.5z M203.6,53.1C189,45.6,174.2,38,184.5,24.7
		c5.4-7.1,15.4-9,26.8-8.7c5.9,0.2,10.5,2.9,10.5,6.3v26.1c0,2.8-3.1,5.3-7.7,6.1H214C210.4,55.1,206.4,54.6,203.6,53.1z"/>
</g>
<g>
	<path class="st2" d="M12.9,447.2L49.8,420l13,17.6c2.5,3.3,3.6,6.6,3.4,10c-0.3,3.3-1.9,6-4.8,8.2c-3.3,2.4-6.7,3.1-10.2,2L51,458
		c0.9,4.5-0.9,8.3-5.2,11.5c-3.3,2.5-6.7,3.3-10.1,2.6c-3.5-0.7-6.5-2.9-9.2-6.5L12.9,447.2z M26.3,450l6.5,8.7
		c2.3,3.1,4.8,3.7,7.5,1.7c1.1-0.8,1.8-1.9,2-3.2c0.2-1.3-0.2-2.8-1.4-4.5l-6.5-8.7L26.3,450z M41.6,438.7l6.1,8.2
		c1.9,2.6,4,3.1,6.4,1.3c2.3-1.7,2.5-3.9,0.6-6.5l-6.1-8.2L41.6,438.7z"/>
	<path class="st2" d="M51.4,492.9c-2.9-2.5-4.5-5.4-4.7-8.5c-0.3-3.2,0.8-6.3,3.2-9.1l14.8-16.9l7.6,6.7l-12.8,14.6
		c-2.8,3.2-2.7,6,0.2,8.5c1.4,1.2,2.9,1.7,4.6,1.6c1.7-0.2,3.2-1,4.5-2.5L81.3,473l7.6,6.6l-22.5,25.8l-6.8-6l1.6-3l-0.2-0.2
		C57.7,496.6,54.5,495.5,51.4,492.9z"/>
	<path class="st2" d="M73.8,510.2l18.7-28.7l7,4.6l-2.1,4.6l0.2,0.1c3.6-2.1,7-2.1,10.4,0.1l2,1.3l-5.1,7.7l-2.7-1.8
		c-2-1.3-4-1.7-6-1.2c-2.1,0.5-3.9,1.9-5.3,4.2l-9.2,14.1L73.8,510.2z"/>
	<path class="st2" d="M108.8,531.5c-3.4-1.7-5.7-4-6.8-7c-1.1-3-0.9-6.3,0.8-9.6l9.9-20.2l9.1,4.4l-8.5,17.4c-1.8,3.8-1,6.5,2.4,8.2
		c1.6,0.8,3.3,0.9,4.9,0.3c1.6-0.6,2.8-1.8,3.7-3.6l8.4-17.1l9,4.4l-15.1,30.7l-8.1-4l0.7-3.3L119,532
		C115.8,533.5,112.4,533.3,108.8,531.5z"/>
	<path class="st2" d="M134.6,542.8l10.9-32.5l8.6,2.9l-0.3,3.3l0.2,0.1c2.9-1.7,6.3-2,10.1-0.7c3.6,1.2,6.1,3.2,7.7,6.1
		c1.5,2.9,1.6,6.1,0.5,9.6l-7.2,21.4l-9.5-3.2l6.2-18.4c1.3-4,0.2-6.6-3.5-7.8c-1.8-0.6-3.3-0.5-4.8,0.3s-2.6,2.2-3.2,4.1l-6,18
		L134.6,542.8z"/>
	<path class="st2" d="M185.2,558.2c-4.2-0.9-7.1-3.1-8.9-6.9c-1.8-3.7-2.2-8.1-1.1-13.3c1-5.1,3.1-9,6.3-11.7
		c3.1-2.7,6.7-3.6,10.9-2.8c3.8,0.8,6.5,2.7,8.1,5.6l0.3,0.1l3.5-17.1l9.9,2l-9.8,47.5l-8.9-1.8l-0.4-3.4l-0.3-0.1
		C192.3,558.3,189.1,559,185.2,558.2z M190,550.1c2.2,0.5,4,0,5.5-1.4c1.4-1.4,2.4-3.3,2.9-6c1.2-5.8-0.4-9.1-4.8-10
		c-4.4-0.9-7.2,1.5-8.4,7.3c-0.5,2.7-0.4,4.9,0.3,6.6C186.3,548.5,187.8,549.7,190,550.1z"/>
	<path class="st2" d="M212.1,562.3l4.2-34l10,1.2l-4.2,34L212.1,562.3z M216.4,524.3l1.2-10.2l10.7,1.3l-1.2,10.2L216.4,524.3z"/>
	<path class="st2" d="M250.6,565.8l-0.8-45.8l21.9-0.4c4.1-0.1,7.5,0.9,10.1,3c2.5,2.1,3.8,5,3.9,8.7c0.1,4-1.4,7.2-4.3,9.4v0.3
		c4.1,1.9,6.3,5.5,6.4,11c0.1,4.1-1.2,7.4-3.7,9.7c-2.6,2.4-6.1,3.7-10.7,3.7L250.6,565.8z M260.3,537.5l10.2-0.2
		c3.2-0.1,4.8-1.5,4.8-4.4c0-2.9-1.7-4.3-4.9-4.2l-10.2,0.2L260.3,537.5z M260.7,556.6l10.9-0.2c3.9-0.1,5.8-1.8,5.7-5.2
		c0-1.4-0.5-2.6-1.4-3.5c-1-1-2.4-1.5-4.5-1.4l-10.9,0.2L260.7,556.6z"/>
	<path class="st2" d="M308.2,563.3c-3.8,0.5-7-0.2-9.5-2.1c-2.6-1.9-4.2-4.7-4.7-8.4l-3-22.3l10-1.4l2.6,19.2c0.6,4.2,2.7,6,6.5,5.5
		c1.8-0.2,3.2-1.1,4.2-2.4c1-1.4,1.3-3,1.1-5l-2.6-18.8l10-1.4l4.6,33.9l-9,1.2l-1.2-3.1h-0.3C315.1,561,312.2,562.7,308.2,563.3z"
		/>
	<path class="st2" d="M348.6,555.7c-5,1.2-8.9,1.1-11.8-0.5c-3-1.5-4.9-4.1-5.9-7.6l9.8-2.4c0.2,1,0.9,1.7,1.9,2.3
		c1,0.5,2.3,0.6,3.9,0.2c1.6-0.4,2.7-0.9,3.4-1.6c0.7-0.6,0.9-1.3,0.7-2c-0.3-1.3-1.7-1.9-4-1.8l-5.1,0.3
		c-7.1,0.4-11.4-2.2-12.8-7.9c-0.7-2.9-0.1-5.5,1.9-7.9c2-2.5,5.1-4.3,9.3-5.3c4.2-1,7.8-0.8,10.9,0.7c3,1.5,4.9,3.8,5.7,7l-9.7,2.4
		c-0.2-0.9-0.7-1.6-1.6-2.2c-0.9-0.5-2.1-0.6-3.6-0.2c-1.2,0.3-2,0.7-2.6,1.3s-0.8,1.3-0.7,1.9c0.3,1.2,1.3,1.8,3.1,1.7l6.7-0.4
		c3.1-0.2,5.7,0.3,7.9,1.3c2.2,1.2,3.7,3.3,4.5,6.5c0.8,3.4,0.2,6.3-2.1,8.8C356.2,552.8,352.9,554.6,348.6,555.7z"/>
	<path class="st2" d="M370.3,549.3L353.2,504l9.5-3.6l6.2,16.4l0.2-0.1c1.1-3.2,3.6-5.5,7.4-6.9c3.6-1.4,6.9-1.4,9.8-0.1
		s5.1,3.7,6.4,7.2l8,21.1l-9.4,3.6l-6.8-18.1c-1.5-3.9-4-5.2-7.6-3.9c-1.7,0.6-2.9,1.8-3.7,3.4c-0.7,1.6-0.8,3.3-0.1,5.2l6.7,17.8
		L370.3,549.3z"/>
	<path class="st2" d="M418,529.7c-3.3,1.8-6.3,2.3-9.1,1.5c-2.8-0.7-5-2.5-6.5-5.3c-1.5-2.9-1.7-5.7-0.6-8.5
		c1.1-2.7,3.7-5.2,7.7-7.3l6.5-3.5l-0.9-1.6c-0.6-1.1-1.5-1.8-2.6-2.1c-1.1-0.2-2.5,0.1-4,0.9c-1.4,0.7-2.3,1.6-2.7,2.6
		c-0.5,1.1-0.4,2.1,0.1,3.1l-8.3,4.5c-1.6-3-1.9-6.1-0.7-9.3c1.1-3.2,3.8-5.9,8-8.1c4.1-2.2,7.8-2.9,11.2-2.2
		c3.5,0.8,6.1,2.7,7.8,5.9l10.7,19.8l-8,4.3l-2.1-2.4l-0.2,0.1C423.6,525.3,421.5,527.8,418,529.7z M416.5,521.6
		c1.7-0.9,2.9-2.1,3.5-3.6c0.6-1.4,0.5-2.8-0.2-4.1l-0.7-1.3l-5.7,3.1c-1.3,0.7-2.2,1.5-2.6,2.4c-0.4,0.9-0.4,1.8,0.1,2.6
		c0.5,0.9,1.2,1.4,2.2,1.6C414.1,522.5,415.3,522.3,416.5,521.6z"/>
	<path class="st2" d="M453.5,507.7c-4.1,3-7.8,4.4-11.1,4c-3.3-0.3-6.1-1.9-8.3-4.8l8.1-6c0.6,0.8,1.5,1.3,2.6,1.4
		c1.1,0.1,2.4-0.4,3.7-1.3c1.3-1,2.2-1.9,2.5-2.7c0.4-0.8,0.3-1.5-0.1-2.1c-0.8-1.1-2.3-1.1-4.4-0.1l-4.6,2.2
		c-6.4,3.1-11.3,2.3-14.8-2.5c-1.8-2.4-2.2-5.1-1.3-8.1c0.9-3.1,3.1-5.9,6.6-8.5c3.5-2.5,6.9-3.7,10.3-3.5c3.4,0.2,6,1.7,8,4.3
		l-8,5.9c-0.5-0.8-1.3-1.2-2.3-1.4c-1-0.2-2.1,0.3-3.4,1.2c-1,0.7-1.6,1.5-1.9,2.2c-0.3,0.8-0.3,1.5,0.1,2c0.7,1,1.9,1.1,3.5,0.4
		l6-2.9c2.8-1.3,5.4-1.9,7.8-1.8c2.4,0.2,4.6,1.7,6.6,4.3c2.1,2.8,2.6,5.8,1.4,8.9C459.4,502.1,457.1,505,453.5,507.7z"/>
	<path class="st2" d="M471.9,492.7L437,459l7-7.3l12.6,12.1l0.2-0.2c-0.3-3.4,0.9-6.5,3.7-9.4c2.7-2.8,5.6-4.2,8.8-4.3
		c3.2-0.1,6.2,1.1,8.8,3.7l16.2,15.6l-7,7.2L473.4,463c-3-2.9-5.9-3-8.5-0.2c-1.3,1.3-1.9,2.9-1.9,4.6c0,1.8,0.8,3.3,2.2,4.7
		l13.7,13.2L471.9,492.7z"/>
	<path class="st2" d="M506.9,452.3c-2,3.2-4.4,5.1-7.2,5.9c-2.8,0.8-5.6,0.3-8.2-1.3c-2.8-1.7-4.3-4.1-4.7-7
		c-0.4-2.9,0.6-6.3,3-10.2l3.9-6.2l-1.6-1c-1.1-0.7-2.2-0.9-3.3-0.6c-1.1,0.3-2.1,1.3-3.1,2.8c-0.8,1.3-1.2,2.5-1,3.6
		c0.1,1.2,0.7,2,1.6,2.6l-5,8c-2.9-1.8-4.7-4.4-5.3-7.8c-0.6-3.3,0.4-7,2.9-11.1c2.4-3.9,5.3-6.4,8.7-7.5c3.4-1.1,6.6-0.7,9.7,1.2
		l19.1,11.9l-4.8,7.7l-3-1l-0.1,0.2C509.5,445.7,509,449,506.9,452.3z M501.6,446c1-1.7,1.5-3.3,1.2-4.8c-0.2-1.5-1-2.7-2.2-3.5
		l-1.2-0.8l-3.4,5.5c-0.8,1.3-1.1,2.4-1.1,3.4c0.1,1,0.5,1.7,1.4,2.3s1.8,0.6,2.7,0.3C499.9,448.1,500.8,447.3,501.6,446z"/>
</g>
<path id="SVGID_x5F_1_x5F_" style="fill:none;" d="M683.1-433.4c0,157.3,134.5,284.8,300.4,284.8s300.4-127.5,300.4-284.8
	s-134.5-284.8-300.4-284.8S683.1-590.7,683.1-433.4z"/>
<text><textPath  xlink:href="#SVGID_x5F_1_x5F_" startOffset="99.9919%">
<tspan  style="font-family:'BasierCircle-Bold'; font-size:72px;">Burundi Buhire</tspan></textPath>
</text>
<g>
	<path class="st0" d="M26.6,198.2l36.7-34.5l16.5,17.6c6.3,6.7,6.7,14.4,0.8,20c-3.3,3.1-6.9,4.2-10.9,3.5l-0.2,0.2
		c1.5,4.8,0.1,9.2-4.2,13.3c-6.7,6.3-14.7,5.6-21.6-1.7L26.6,198.2z M41.6,199.5l8.2,8.7c2.9,3.1,5.8,3.4,8.5,0.8
		c2.1-2,2.8-5.2-0.4-8.5l-8.2-8.7L41.6,199.5z M56.8,185.1l7.7,8.2c2.4,2.6,4.8,2.8,7.1,0.6c2.3-2.2,2.2-4.6-0.2-7.1l-7.7-8.2
		L56.8,185.1z"/>
	<path class="st0" d="M104.4,219l8.8,6.7l-13.6,18c-2.6,3.5-6.1,5.6-10.2,6.3c-4.1,0.7-8.4-0.7-13-4.1l-0.1,0
		c-4.6-3.5-7.1-7.3-7.6-11.4c-0.4-4.1,0.7-8,3.3-11.5l13.6-18l8.8,6.7L82,228.3c-2.8,3.7-2.5,6.8,0.8,9.2s6.3,1.8,9-1.8L104.4,219z"
		/>
	<path class="st0" d="M100.2,261.5l18.6-32.7l8,4.6l-2,5.2l0.3,0.1c3.8-2.6,7.6-2.7,11.4-0.5l2.3,1.3l-5,8.8l-3.1-1.8
		c-4.6-2.6-9.3-1.1-12.2,4l-9.2,16.1L100.2,261.5z"/>
	<path class="st0" d="M164.1,251.2l10.2,4.2l-8.6,20.9c-1.7,4.1-4.4,7-8.2,8.7c-3.7,1.7-8.3,1.5-13.6-0.7l-0.1,0
		c-5.3-2.2-8.7-5.2-10.3-9.1c-1.4-3.9-1.3-7.9,0.3-11.9l8.6-20.9l10.2,4.2l-8,19.4c-1.8,4.3-0.7,7.2,3.1,8.8
		c3.8,1.6,6.5,0.2,8.3-4.1L164.1,251.2z"/>
	<path class="st0" d="M171.3,294l9-36.6l9.6,2.4l0,3.7l0.3,0.1c3-2.2,6.7-2.7,11-1.7c8.2,2,12.3,8.4,10.3,16.5l-5.9,24.1l-10.8-2.6
		l5.1-20.7c1.1-4.5-0.4-7.2-4.5-8.2c-3.9-1-7.3,1.1-8.4,5.5l-5,20.3L171.3,294z"/>
	<path class="st0" d="M219.3,299.7c-2.4-3.9-3.3-8.7-2.8-14.4c0.5-5.7,2.3-10.2,5.4-13.5c3.1-3.4,7-4.8,11.6-4.4
		c4.3,0.4,7.5,2.2,9.6,5.2l0.3,0l1.8-19.1l11,1l-5,53l-9.9-0.9l-0.8-3.7l-0.3,0c-2.6,2.6-6.1,3.7-10.4,3.3
		C225.3,305.6,221.8,303.5,219.3,299.7z M236.1,277.3c-4.9-0.5-7.7,2.5-8.3,9c-0.5,5.7,1.4,10,6.5,10.4c5.1,0.5,7.8-3.3,8.3-9.1
		C243.1,281.2,241,277.8,236.1,277.3z"/>
	<path class="st0" d="M259,259.3c-0.1-4,2.3-6.4,6.6-6.5c4.2-0.1,6.7,2.3,6.8,6.3s-2.3,6.5-6.6,6.6
		C261.5,265.8,259.1,263.4,259,259.3z M260.8,307.3l-0.6-37.7l11.1-0.2l0.6,37.7L260.8,307.3z"/>
	<path class="st1" d="M305.8,305l-9.6-49.5l23.7-4.6c9-1.7,15.8,2,17.3,10c0.9,4.5-0.1,8.1-2.8,11l0.1,0.3c4.9,1.3,7.8,4.8,9,10.7
		c1.7,9-3.2,15.4-13,17.3L305.8,305z M311,272.5l11-2.1c3.5-0.7,4.9-2.6,4.3-5.7c-0.6-3.1-2.7-4.3-6.1-3.6l-11,2.1L311,272.5z
		 M315,293l11.7-2.3c4.2-0.8,5.9-3.1,5.2-6.7c-0.6-2.9-2.9-5.1-7.3-4.2l-11.7,2.3L315,293z"/>
	<path class="st1" d="M365.1,250.6l10.4-3.8l7.8,21.2c1.5,4.1,1.5,8.1-0.2,12c-1.6,3.8-5.1,6.7-10.5,8.7l-0.1,0
		c-5.4,2-10,2.1-13.7,0.2c-3.7-1.9-6.3-4.9-7.8-9l-7.8-21.2l10.4-3.8l7.2,19.7c1.6,4.3,4.3,5.8,8.2,4.4c3.9-1.4,5-4.3,3.4-8.6
		L365.1,250.6z"/>
	<path class="st1" d="M399.4,277.1l-25.8-46.6l9.7-5.4l9.3,16.8l0.3-0.1c0.7-3.6,3.1-6.5,7-8.7c7.4-4.1,14.8-2.2,18.8,5.1l12,21.7
		l-9.7,5.4l-10.3-18.7c-2.2-4-5.2-5-8.9-3c-3.5,1.9-4.8,6-2.7,9.9l10.1,18.3L399.4,277.1z"/>
	<path class="st1" d="M410.1,215.5c-2.3-3.3-1.8-6.6,1.8-9.1c3.5-2.4,6.8-1.9,9.2,1.4s1.7,6.7-1.7,9.2
		C415.8,219.4,412.5,218.8,410.1,215.5z M438.7,254l-21.7-30.8l9.1-6.4l21.7,30.8L438.7,254z"/>
	<path class="st1" d="M455.1,242.2l-24.2-28.8l7.1-5.9l4.2,3.6l0.2-0.2c-1.1-4.4,0.1-8.1,3.4-10.9l2-1.7l6.5,7.8l-2.8,2.3
		c-4,3.4-4.3,8.3-0.4,12.9l12,14.2L455.1,242.2z"/>
	<path class="st1" d="M478,215.8c-4.9,0-9.5-2-13.6-5.8s-6.5-8.1-7-13s1.2-9.5,5.1-13.8c3.7-4.1,8-6.2,12.8-6.2
		c4.7,0,9,1.8,12.9,5.3l3,2.8l-17,18.5c3.4,3.1,7.2,3.3,10.5-0.3c2.3-2.5,2.9-5,1.7-7.4l7.3-7.9c2.3,2.8,3.3,6.2,3,10.1
		c-0.2,3.9-2,7.6-5.3,11.2C487.3,213.6,483,215.7,478,215.8z M478.3,188.7c-3-2.4-6.4-2.5-9.2,0.6c-3.1,3.3-2.7,6.8-0.1,9.5
		L478.3,188.7z"/>
</g>
</svg>
