<?xml version="1.0" encoding="utf-8"?>
<!-- Generator: Adobe Illustrator 27.0.0, SVG Export Plug-In . SVG Version: 6.00 Build 0)  -->
<svg version="1.1" id="Layer_1" xmlns="http://www.w3.org/2000/svg" xmlns:xlink="http://www.w3.org/1999/xlink" x="0px" y="0px"
	 viewBox="0 0 175 175" style="enable-background:new 0 0 175 175;" xml:space="preserve">
<style type="text/css">
	.st0{fill:#DFDFDF;}
	.st1{fill:#9E9E9E;}
</style>
<g>
	<path class="st0" d="M175,87.5c0,23.6-9.3,45-24.5,60.7c-15.9,16.5-38.2,26.8-63,26.8c-24.7,0-47-10.2-62.9-26.7
		C9.4,132.6,0,111.1,0,87.5C0,39.2,39.2,0,87.5,0S175,39.2,175,87.5z"/>
	<path class="st1" d="M150.5,148.2c-15.9,16.5-38.2,26.8-63,26.8c-24.7,0-47-10.2-62.9-26.7c7.8-16.1,22.9-21.2,38.7-25.5
		c3.7-1,9.4-0.8,10.3-5.2c0.9-4.8-5-5.6-8-8.1c-3.1-2.7-6.2-5.4-7.6-9.4c-2.1-6.1-2.4-12.9-9.1-16.8c-2.5-1.5-2.3-5.9-0.4-8.3
		c2.8-3.7,2-7,0.8-10.8C47.2,57.7,45.6,51,46.2,44c0.3-3.6,1.6-6.5,4.4-8.9c15-12.8,32.7-14.3,50.9-11.1
		c18.1,3.1,27.1,17.3,24.1,35.5c-1,5.8-2.9,11.3,1.8,16.9c2.7,3.2,0.1,7.2-3.3,9.2c-3.2,1.8-4.6,4.3-4.9,7.7
		c-0.9,8.3-5.7,14.1-12.5,18.6c-2.1,1.4-5,2.4-4.7,5.6c0.4,3.6,3.9,3.6,6.4,4.5c5.9,2,11.8,3.9,17.8,5.6
		C137.6,130.5,145.3,138,150.5,148.2z"/>
</g>
</svg>
