<?xml version="1.0" encoding="utf-8"?>
<!-- Generator: Adobe Illustrator 27.0.0, SVG Export Plug-In . SVG Version: 6.00 Build 0)  -->
<svg version="1.1" id="Layer_1" xmlns="http://www.w3.org/2000/svg" xmlns:xlink="http://www.w3.org/1999/xlink" x="0px" y="0px"
	 viewBox="0 0 175 175" style="enable-background:new 0 0 175 175;" xml:space="preserve">
<style type="text/css">
	.st0{fill:#DFDFDF;}
	.st1{fill:#9E9E9E;}
</style>
<g>
	<path class="st0" d="M175,87.5c0,26.7-12,50.6-30.8,66.6c-15.3,13-35.1,20.9-56.7,20.9c-21.6,0-41.5-7.9-56.7-20.9
		C11.9,138.1,0,114.2,0,87.5C0,39.2,39.2,0,87.5,0C135.8,0,175,39.2,175,87.5z"/>
	<path class="st1" d="M144.2,154.1c-15.3,13-35.1,20.9-56.7,20.9c-21.6,0-41.5-7.9-56.7-20.9c3.1-14.5,11.8-24,26.3-28.6
		c4.1-1.3,8-3.1,12.1-4.5c3.4-1.1,4.7-3.4,4.3-6.9c-0.4-3.8-3-5.1-6.3-5c-6.6,0.2-12.8-0.9-18.8-3.6c-2.6-1.2-5.3-2.6-3.7-6.3
		c5.5-12.2,4.1-25.2,4.5-38C49.7,45,56.5,32.3,71.6,25c24.2-11.7,53.1,6.2,53.5,33.1c0.2,13.9-0.4,27.9,5.2,41.2
		c1.4,3.3-0.8,4.8-3.2,6c-4.9,2.3-10,3.9-15.5,3.8c-2.1,0-4.3,0-6.4,0.5c-2.7,0.7-4.4,2.5-4.5,5.5c-0.1,2.7,1.1,4.4,3.7,5.4
		c3.8,1.4,7.6,3,11.5,4.2C131,129.4,140.6,138.9,144.2,154.1z"/>
</g>
</svg>
